<?xml version="1.0" encoding="utf-8"?>
<!-- Generator: Adobe Illustrator 26.5.0, SVG Export Plug-In . SVG Version: 6.00 Build 0)  -->
<svg version="1.1" id="Layer_1" xmlns="http://www.w3.org/2000/svg" xmlns:xlink="http://www.w3.org/1999/xlink" x="0px" y="0px"
	 viewBox="0 0 500 500" style="enable-background:new 0 0 500 500;" xml:space="preserve">
<style type="text/css">
	.st0{fill:#CB8535;}
	.st1{fill:#7E491E;}
	.st2{fill:#F4F3E4;}
	.st3{fill:#B92126;}
	.st4{fill:#10964C;}
	.st5{fill:#F05B71;}
	.st6{fill:#FDF8F0;}
	.st7{fill:#97D1A4;}
</style>
<g>
	<path class="st0" d="M416.99,360.1C381.21,414.26,319.78,450,250,450c-110.45,0-200-89.54-200-199.99
		c0-23.82,4.16-46.66,11.81-67.84c10.7-11.79,37.52-21.21,51.91-19.99c16.64,1.43,23.3,27.59,34.25,31.39
		c10.93,3.8,24.74,1.44,37.1,9.04c12.37,7.62,31.87,28.06,58.02,40.19c26.17,12.13,60.89,16.41,71.82,20.22
		c10.95,3.8,24.26,32.34,61.84,46.13C409.73,321.27,411.57,346.93,416.99,360.1z"/>
	<path class="st1" d="M298.74,272.68c-6.97,2.8-10.41,0.44-14.15,0.6c-3.75,0.16-1.24,10.06,0.43,9.99
		c1.67-0.07,10.2,4.99,6.38,8.07c-3.82,3.08-6.81,11.13-10.51,12.54s-11.6,1.75-13.11,5.56s-11.38-2.85-20.19,15.46
		c-9.31,6.65-13.55,14.76-11.85,15.52c1.7,0.76,14.7-7.3,19-14.16c4.29-6.86,8.27-1.6,15.24-4.4c6.97-2.8,3.32-10.15,5.37-11.07
		c2.05-0.92,24.22-8.96,24.34-16.05c0.11-7.09-2.44-8.24-0.43-9.99c2.01-1.75,13.84,1.91,19.55-1.25
		c5.7-3.16,19.12-11.24,19.79-15.02c0.67-3.78-9.18-19.63-9.18-19.63l-22.83,12.23L298.74,272.68z"/>
	<path class="st2" d="M450,250.01c0,40.68-12.15,78.52-33.01,110.09c-5.43-13.17-7.26-38.83-40.24-50.95
		c-37.58-13.79-50.89-42.32-61.84-46.13c-10.93-3.82-45.65-8.09-71.82-20.22c-26.16-12.13-45.65-32.58-58.02-40.19
		c-12.37-7.6-26.17-5.24-37.1-9.04c-10.95-3.8-17.6-29.96-34.25-31.39c-14.39-1.23-41.22,8.2-51.91,19.99
		C89.59,105.09,163.37,50,250,50C360.47,50,450,139.54,450,250.01z"/>
	<circle class="st3" cx="161.77" cy="218.9" r="13.85"/>
	<circle class="st3" cx="164.04" cy="260.45" r="15.36"/>
	<path class="st4" d="M192.03,211.43c10.56,5.06,16.87,10.83,23.92,9.32s14.86-10.2,22.41-7.18c7.55,3.02,9.82,18.51,17.38,15.23
		c7.55-3.27,1.64-20.52,6.67-21.53s20.52,5.79,25.06,1.01c4.53-4.78-8.56-12.72-8.31-20.02c0.25-7.3,26.19-10.32,20.4-21.4
		s-20.4,3.54-29.71,1.01c-8.59-2.33-5.31-19.27-11.84-17.88c-11.84,2.52-0.59,35.02-11.81,32.99c-8.33-1.51,2.75-14.35-8.33-14.35
		c-14.35,0-11.08,47.59-37.83,33.32c-20.58-10.98,14.16-17.2,14.16-28.53c0-10.83-17.77-0.76-21.91-9.32
		c-4.13-8.56,19.64-27.19,10.58-33.99c-9.07-6.8-12.84,8.81-21.4,6.8s-11.84-31.08-21.15-28.06c-9.32,3.02,5.79,28.56,1.26,34.6
		c-4.53,6.04-16.98-9.64-22.91,3.27c-7.81,17,29.34,8.18,27.07,20.77c-2.27,12.59-20.77-1.38-20.77,9.69s13.85,8.06,21.15,15.86
		S186.14,208.61,192.03,211.43z"/>
	<circle class="st3" cx="202.56" cy="241.56" r="16.12"/>
	<path class="st5" d="M198.93,231.54c1.6,3.6-3.13,11.56-6.43,12.2C190.58,239.88,194.59,232.56,198.93,231.54z"/>
	<path class="st5" d="M155.36,210.77c0.38,2.35,0.73,5.93-3.26,7.78C150.6,215.75,152.52,212.03,155.36,210.77z"/>
	<path class="st5" d="M154.66,253.99c2.86,3.32,3.08,9.53-0.8,11.48C149.68,262.94,150.05,256.93,154.66,253.99z"/>
	<path class="st6" d="M254.99,50.08c-80.67,1.95-149.55,51.69-179.29,121.99c-5.63,2.97-10.55,6.41-13.89,10.09
		C89.59,105.09,163.37,50,249.99,50C251.67,50,253.32,50.03,254.99,50.08z"/>
	<path class="st7" d="M163.39,145.72c-4.54,6.03-16.99-9.66-22.92,3.27c-1.22,2.66-1.34,4.69-0.66,6.29
		c-2.28-1.75-3.09-4.36-1.17-8.57c5.93-12.93,18.38,2.76,22.92-3.3c4.54-6.03-10.57-31.56-1.27-34.58c2.61-0.84,4.74,0.81,6.62,3.68
		c-1.42-1.37-2.99-1.98-4.77-1.39C152.82,114.13,167.93,139.66,163.39,145.72z"/>
	<path class="st7" d="M167.55,169.76c-2.26,12.6-20.76-1.37-20.76,9.71c0,1.7,0.33,3.04,0.91,4.18c-1.7-1.42-2.76-3.42-2.76-6.49
		c0-11.08,18.51,2.92,20.79-9.68c0.18-0.99,0.1-1.85-0.18-2.61C167.12,166,167.95,167.55,167.55,169.76z"/>
	<path class="st7" d="M242.99,171.5c-0.76-0.38-1.85-0.61-3.3-0.61c-14.35,0-11.08,47.58-37.85,33.31c-3.4-1.83-5.27-3.5-6.08-5.1
		c1.01,0.89,2.41,1.83,4.26,2.81c26.75,14.27,23.48-33.31,37.83-33.31C241.22,168.61,242.54,169.81,242.99,171.5z"/>
	<path class="st7" d="M261.68,152.44c-0.51-0.25-1.12-0.33-1.85-0.18c-11.81,2.51-0.58,35.01-11.81,32.98
		c-1.98-0.35-2.86-1.37-3.17-2.69c0.38,0.18,0.81,0.3,1.34,0.41c11.23,2.03-0.03-30.47,11.81-32.98
		C259.83,149.58,260.89,150.64,261.68,152.44z"/>
	<path class="st7" d="M299.33,166.46c-6.69-5.58-19.29,5.96-27.66,3.68c-2.03-0.56-3.4-1.9-4.39-3.65c0.71,0.63,1.55,1.09,2.56,1.37
		C279.04,170.36,293.39,156.09,299.33,166.46z"/>
	<path class="st1" d="M325.23,322.81c1.25,2.92-0.42,9.58,0,13.33c0.42,3.75-1.39,11.25-0.07,14.58c1.32,3.33,4.24,9.58,2.99,12.5
		c-1.25,2.92-6.25,12.08-7.5,19.58c-1.25,7.5,2.8,11.67,3.9,17.08c1.1,5.42-0.38,16.67,3.9,18.33c4.28,1.67,8.03,0,9.7-2.92
		c1.67-2.92-1.25-4.17-4.58-8.75s-4.06-9.58-2.86-11.67c1.2-2.08,2.86-10,2.45-11.25c-0.42-1.25-2.81-6.25-2.45-9.17
		c0.36-2.92,5.78-21.67,5.78-21.67s-4.89-2.92-5.78-1.25s0.47-8.62,0-12.85c-0.47-4.23-1.06-7.56-1.18-9.65
		c-0.12-2.08,1.37-12.08,0-13.75S325.23,322.81,325.23,322.81z"/>
	<path class="st1" d="M157.67,294.88c-0.66,1.6-0.58,13.77,2.9,17.1c3.48,3.33,10.13,3.65,14.39,4.55c4.26,0.9-6.09,7.28-4.65,11.64
		c-8.75,0.69-19.93-2.66-22.78,1.21c-2.84,3.87-16.05,9.94-17.42,13.56s-16.73,3.15-18.2,7.6s7.92,28.14,13.3,31.68
		c5.38,3.54-2.63-6.58,3.63-10.91c6.27-4.33,15.31-3.31,15.68-6.62s-0.91-17.58,2.98-22.24c3.9-4.66,10.58-8.94,25.59-9.35
		c15.01-0.41,11.38-6.69,12.81-6.53c1.43,0.16,20.93,2.35,25.21,2.83c4.28,0.48,1.6-5.69,0.88-7.87c-0.72-2.18-9.19-3.97-11.52-4.65
		s-13.99-4.09-16.08-2.65c-2.09,1.44-9.34-6.92-10.72-7.49C172.3,306.17,157.67,294.88,157.67,294.88z"/>
	<path class="st1" d="M77.93,206.32c-7.06-5.1,17.5,14.98,16.31,22.94c-0.7,4.66-21.04,39.6-20.56,42.07
		c0.48,2.47,27.86-29.03,31.56-29.76c3.7-0.72,5.65-17.83,6.53-20.27C112.65,218.86,93.21,217.36,77.93,206.32z"/>
</g>
</svg>
